{
  "accessors": [
    {
      "bufferView": 2,
      "componentType": 5126,
      "count": 8851,
      "max": [
        0.20655399560928345,
        0.8022059798240662,
        0.3989439904689789
      ],
      "min": [
        -0.21893799304962158,
        0.3515160083770752,
        -0.5377510190010071
      ],
      "type": "VEC3"
    },
    {
      "bufferView": 2,
      "byteOffset": 106212,
      "componentType": 5126,
      "count": 8851,
      "max": [
        1.0,
        1.0,
        1.0
      ],
      "min": [
        -1.0,
        -1.0,
        -1.0
      ],
      "type": "VEC3"
    },
    {
      "bufferView": 1,
      "componentType": 5126,
      "count": 8851,
      "max": [
        0.875,
        1.0
      ],
      "min": [
        0.125,
        -3.999999989900971e-06
      ],
      "type": "VEC2"
    },
    {
      "bufferView": 0,
      "componentType": 5125,
      "count": 38868,
      "type": "SCALAR"
    }
  ],
  "asset": {
    "extras": {
      "author": "BlueCrystal500 (https://sketchfab.com/BlueCrystal500)",
      "license": "CC-BY-4.0 (http://creativecommons.org/licenses/by/4.0/)",
      "source": "https://sketchfab.com/3d-models/kitchen-chair-3b16b79764e248e691f790d2e622b327",
      "title": "Kitchen Chair"
    },
    "generator": "Sketchfab-12.66.0",
    "version": "2.0"
  },
  "bufferViews": [
    {
      "buffer": 0,
      "byteLength": 155472,
      "name": "floatBufferViews",
      "target": 34963
    },
    {
      "buffer": 0,
      "byteLength": 70808,
      "byteOffset": 155472,
      "byteStride": 8,
      "name": "floatBufferViews",
      "target": 34962
    },
    {
      "buffer": 0,
      "byteLength": 212424,
      "byteOffset": 226280,
      "byteStride": 12,
      "name": "floatBufferViews",
      "target": 34962
    }
  ],
  "buffers": [
    {
      "byteLength": 438704,
      "uri": "scene.bin"
    }
  ],
  "materials": [
    {
      "doubleSided": true,
      "name": "Material.001",
      "pbrMetallicRoughness": {
        "baseColorFactor": [
          0.9819772483491759,
          0.9525968729645353,
          0.9525968729645353,
          1.0
        ],
        "metallicFactor": 0.0,
        "roughnessFactor": 0.11091757520471289
      }
    }
  ],
  "meshes": [
    {
      "name": "Object_0",
      "primitives": [
        {
          "attributes": {
            "NORMAL": 1,
            "POSITION": 0,
            "TEXCOORD_0": 2
          },
          "indices": 3,
          "material": 0,
          "mode": 4
        }
      ]
    }
  ],
  "nodes": [
    {
      "children": [
        1
      ],
      "matrix": [
        1.0,
        0.0,
        0.0,
        0.0,
        0.0,
        2.220446049250313e-16,
        -1.0,
        0.0,
        0.0,
        1.0,
        2.220446049250313e-16,
        0.0,
        0.0,
        0.0,
        0.0,
        1.0
      ],
      "name": "Sketchfab_model"
    },
    {
      "children": [
        2
      ],
      "name": "kitchen chair.obj.cleaner.materialmerger.gles"
    },
    {
      "mesh": 0,
      "name": "Object_2"
    }
  ],
  "scene": 0,
  "scenes": [
    {
      "name": "Sketchfab_Scene",
      "nodes": [
        0
      ]
    }
  ]
}
