{
  "accessors": [
    {
      "bufferView": 2,
      "componentType": 5126,
      "count": 576,
      "max": [
        118.7362060546875,
        46.14794921875,
        50.89118576049805
      ],
      "min": [
        -119.63114929199219,
        -303.3746643066406,
        0.0
      ],
      "type": "VEC3"
    },
    {
      "bufferView": 2,
      "byteOffset": 6912,
      "componentType": 5126,
      "count": 576,
      "max": [
        0.9820429086685181,
        0.9820429682731628,
        0.9753877520561218
      ],
      "min": [
        -0.982042670249939,
        -0.9820433259010315,
        -0.9820429086685181
      ],
      "type": "VEC3"
    },
    {
      "bufferView": 1,
      "componentType": 5126,
      "count": 576,
      "max": [
        0.9803087115287781,
        0.9900000095367432
      ],
      "min": [
        0.009999999776482582,
        0.009999999776482582
      ],
      "type": "VEC2"
    },
    {
      "bufferView": 1,
      "byteOffset": 4608,
      "componentType": 5126,
      "count": 576,
      "max": [
        0.9971504807472229,
        0.9993700385093689
      ],
      "min": [
        0.0,
        0.0
      ],
      "type": "VEC2"
    },
    {
      "bufferView": 1,
      "byteOffset": 9216,
      "componentType": 5126,
      "count": 576,
      "max": [
        0.9803087115287781,
        0.9900000095367432
      ],
      "min": [
        0.009999999776482582,
        0.009999999776482582
      ],
      "type": "VEC2"
    },
    {
      "bufferView": 0,
      "componentType": 5125,
      "count": 1944,
      "type": "SCALAR"
    },
    {
      "bufferView": 2,
      "byteOffset": 13824,
      "componentType": 5126,
      "count": 280,
      "max": [
        -99.5301513671875,
        15.677001953125,
        38.62664031982422
      ],
      "min": [
        -114.14944458007813,
        -273.19122314453125,
        21.405927658081055
      ],
      "type": "VEC3"
    },
    {
      "bufferView": 2,
      "byteOffset": 17184,
      "componentType": 5126,
      "count": 280,
      "max": [
        0.9510574340820313,
        1.0,
        0.0
      ],
      "min": [
        -0.9510574340820313,
        -0.8090181350708008,
        0.0
      ],
      "type": "VEC3"
    },
    {
      "bufferView": 1,
      "byteOffset": 13824,
      "componentType": 5126,
      "count": 280,
      "max": [
        1.149999976158142,
        1.0
      ],
      "min": [
        0.15000002086162567,
        0.0
      ],
      "type": "VEC2"
    },
    {
      "bufferView": 1,
      "byteOffset": 16064,
      "componentType": 5126,
      "count": 280,
      "max": [
        0.98588627576828,
        0.9997432827949524
      ],
      "min": [
        0.11344987154006958,
        0.1561812311410904
      ],
      "type": "VEC2"
    },
    {
      "bufferView": 0,
      "byteOffset": 7776,
      "componentType": 5125,
      "count": 420,
      "type": "SCALAR"
    },
    {
      "bufferView": 2,
      "byteOffset": 20544,
      "componentType": 5126,
      "count": 24,
      "max": [
        60.930572509765625,
        32.845088958740234,
        0.6642379760742188
      ],
      "min": [
        -101.42849731445313,
        -266.8384094238281,
        -10.32293701171875
      ],
      "type": "VEC3"
    },
    {
      "bufferView": 2,
      "byteOffset": 20832,
      "componentType": 5126,
      "count": 24,
      "max": [
        1.0,
        1.0,
        0.0
      ],
      "min": [
        -1.0,
        -1.0,
        0.0
      ],
      "type": "VEC3"
    },
    {
      "bufferView": 1,
      "byteOffset": 18304,
      "componentType": 5126,
      "count": 24,
      "max": [
        1.0,
        1.000000238418579
      ],
      "min": [
        0.0,
        5.960464477539063e-08
      ],
      "type": "VEC2"
    },
    {
      "bufferView": 1,
      "byteOffset": 18496,
      "componentType": 5126,
      "count": 24,
      "max": [
        0.976818859577179,
        0.8869956135749817
      ],
      "min": [
        0.17329981923103333,
        0.45677897334098816
      ],
      "type": "VEC2"
    },
    {
      "bufferView": 0,
      "byteOffset": 9456,
      "componentType": 5125,
      "count": 36,
      "type": "SCALAR"
    },
    {
      "bufferView": 2,
      "byteOffset": 21120,
      "componentType": 5126,
      "count": 2372,
      "max": [
        52.188873291015625,
        27.451173782348633,
        56.88282012939453
      ],
      "min": [
        -92.72694396972656,
        -283.71514892578125,
        23.557945251464844
      ],
      "type": "VEC3"
    },
    {
      "bufferView": 2,
      "byteOffset": 49584,
      "componentType": 5126,
      "count": 2372,
      "max": [
        0.9984579086303711,
        0.9980456233024597,
        0.9990084767341614
      ],
      "min": [
        -0.9978718757629395,
        -0.9984070062637329,
        -0.9997109174728394
      ],
      "type": "VEC3"
    },
    {
      "bufferView": 1,
      "byteOffset": 18688,
      "componentType": 5126,
      "count": 2372,
      "max": [
        0.5754446387290955,
        1.0
      ],
      "min": [
        0.0,
        0.0
      ],
      "type": "VEC2"
    },
    {
      "bufferView": 1,
      "byteOffset": 37664,
      "componentType": 5126,
      "count": 2372,
      "max": [
        1.0,
        0.995028555393219
      ],
      "min": [
        0.0,
        0.0
      ],
      "type": "VEC2"
    },
    {
      "bufferView": 1,
      "byteOffset": 56640,
      "componentType": 5126,
      "count": 2372,
      "max": [
        0.5754446387290955,
        1.0
      ],
      "min": [
        0.0,
        0.0
      ],
      "type": "VEC2"
    },
    {
      "bufferView": 0,
      "byteOffset": 9600,
      "componentType": 5125,
      "count": 8874,
      "type": "SCALAR"
    }
  ],
  "asset": {
    "extras": {
      "author": "POLYTRICITY (https://sketchfab.com/PolytricityLtd)",
      "license": "CC-BY-4.0 (http://creativecommons.org/licenses/by/4.0/)",
      "source": "https://sketchfab.com/3d-models/lowpoly-couch-35a901c4d7294301818699b7ee37f589",
      "title": "LowPoly Couch"
    },
    "generator": "Sketchfab-15.55.0",
    "version": "2.0"
  },
  "bufferViews": [
    {
      "buffer": 0,
      "byteLength": 45096,
      "name": "floatBufferViews",
      "target": 34963
    },
    {
      "buffer": 0,
      "byteLength": 75616,
      "byteOffset": 45096,
      "byteStride": 8,
      "name": "floatBufferViews",
      "target": 34962
    },
    {
      "buffer": 0,
      "byteLength": 78048,
      "byteOffset": 120712,
      "byteStride": 12,
      "name": "floatBufferViews",
      "target": 34962
    }
  ],
  "buffers": [
    {
      "byteLength": 198760,
      "uri": "scene.bin"
    }
  ],
  "materials": [
    {
      "doubleSided": true,
      "name": "whiteLeathe",
      "pbrMetallicRoughness": {
        "baseColorFactor": [
          0.882353,
          0.831373,
          0.745098,
          1.0
        ],
        "metallicFactor": 0.0,
        "roughnessFactor": 0.975742942265347
      }
    },
    {
      "doubleSided": true,
      "name": "Chrome",
      "pbrMetallicRoughness": {
        "baseColorFactor": [
          0.0862745,
          0.0862745,
          0.0862745,
          1.0
        ],
        "metallicFactor": 0.0,
        "roughnessFactor": 0.8770563967800025
      }
    },
    {
      "doubleSided": true,
      "name": "wood",
      "pbrMetallicRoughness": {
        "baseColorFactor": [
          0.243137,
          0.168627,
          0.113725,
          1.0
        ],
        "metallicFactor": 0.0,
        "roughnessFactor": 0.9495069264675717
      }
    },
    {
      "doubleSided": true,
      "name": "BrownFabric",
      "pbrMetallicRoughness": {
        "baseColorFactor": [
          0.329412,
          0.27451,
          0.203922,
          1.0
        ],
        "metallicFactor": 0.0,
        "roughnessFactor": 0.9672895291955721
      }
    }
  ],
  "meshes": [
    {
      "name": "CouchAndCushions_whiteLeathe_0",
      "primitives": [
        {
          "attributes": {
            "NORMAL": 1,
            "POSITION": 0,
            "TEXCOORD_0": 2,
            "TEXCOORD_1": 3,
            "TEXCOORD_2": 4
          },
          "indices": 5,
          "material": 0,
          "mode": 4
        }
      ]
    },
    {
      "name": "CouchAndCushions_Chrome_0",
      "primitives": [
        {
          "attributes": {
            "NORMAL": 7,
            "POSITION": 6,
            "TEXCOORD_0": 8,
            "TEXCOORD_1": 9
          },
          "indices": 10,
          "material": 1,
          "mode": 4
        }
      ]
    },
    {
      "name": "CouchAndCushions_wood_0",
      "primitives": [
        {
          "attributes": {
            "NORMAL": 12,
            "POSITION": 11,
            "TEXCOORD_0": 13,
            "TEXCOORD_1": 14
          },
          "indices": 15,
          "material": 2,
          "mode": 4
        }
      ]
    },
    {
      "name": "CouchAndCushions_BrownFabric_0",
      "primitives": [
        {
          "attributes": {
            "NORMAL": 17,
            "POSITION": 16,
            "TEXCOORD_0": 18,
            "TEXCOORD_1": 19,
            "TEXCOORD_2": 20
          },
          "indices": 21,
          "material": 3,
          "mode": 4
        }
      ]
    }
  ],
  "nodes": [
    {
      "children": [
        1
      ],
      "matrix": [
        1.0,
        0.0,
        0.0,
        0.0,
        0.0,
        -5.053215392444312e-16,
        1.0,
        0.0,
        0.0,
        -1.0,
        -5.053215392444312e-16,
        0.0,
        0.0,
        0.0,
        0.0,
        1.0
      ],
      "name": "Sketchfab_model"
    },
    {
      "children": [
        2
      ],
      "matrix": [
        0.009999999776482582,
        0.0,
        0.0,
        0.0,
        0.0,
        -0.009999999776482582,
        0.0,
        0.0,
        0.0,
        0.0,
        -0.009999999776482582,
        0.0,
        0.0,
        0.0,
        0.0,
        1.0
      ],
      "name": "53c668da84074f71b9c07419bf904f40.fbx"
    },
    {
      "children": [
        3
      ],
      "name": "RootNode"
    },
    {
      "children": [
        4,
        5,
        6,
        7
      ],
      "matrix": [
        -4.3711388064693324e-08,
        -0.999999999999999,
        0.0,
        0.0,
        0.999999999999999,
        -4.3711388064693324e-08,
        0.0,
        0.0,
        0.0,
        0.0,
        1.0,
        0.0,
        158.7213134765625,
        -103.35124206542969,
        9.847631454467773,
        1.0
      ],
      "name": "CouchAndCushions"
    },
    {
      "mesh": 0,
      "name": "CouchAndCushions_whiteLeathe_0"
    },
    {
      "mesh": 1,
      "name": "CouchAndCushions_Chrome_0"
    },
    {
      "mesh": 2,
      "name": "CouchAndCushions_wood_0"
    },
    {
      "mesh": 3,
      "name": "CouchAndCushions_BrownFabric_0"
    }
  ],
  "scene": 0,
  "scenes": [
    {
      "name": "Sketchfab_Scene",
      "nodes": [
        0
      ]
    }
  ]
}
